<?xml version="1.0" encoding="utf-8"?>
<!-- Generator: Adobe Illustrator 27.4.0, SVG Export Plug-In . SVG Version: 6.00 Build 0)  -->
<svg version="1.1" id="logo1" xmlns="http://www.w3.org/2000/svg" xmlns:xlink="http://www.w3.org/1999/xlink" x="0px" y="0px"
	 viewBox="0 0 1080 1080" style="enable-background:new 0 0 1080 1080;" xml:space="preserve">
<style type="text/css">
	.st0{fill:#01007F;}
	.st1{fill:#000F8E;}
	.st2{fill:#FFFFFF;}
	.st3{fill:none;stroke:#231F20;stroke-width:0.7517;stroke-miterlimit:10;}
	.st4{fill:url(#SVGID_1_);}
	.st5{fill:url(#SVGID_00000099653953423589610910000005513977668413658758_);}
	.st6{fill:url(#SVGID_00000003791845958545553600000001156462436421710479_);}
	.st7{fill:url(#SVGID_00000079472992503731954950000014429528608630773900_);}
	.st8{fill:url(#SVGID_00000000911910234362945650000000581853127401674425_);}
	.st9{fill:url(#SVGID_00000139974728852387917610000017008509078679261362_);}
	.st10{fill:url(#SVGID_00000123435921352962801580000006692733959585319843_);}
	.st11{fill:url(#SVGID_00000070083207373725709830000014316268700179743111_);}
	.st12{fill:#C4A400;}
	.st13{display:none;}
	.st14{display:inline;fill:#000F8E;}
	.st15{fill:none;stroke:#000F8E;stroke-width:1.2663;stroke-miterlimit:10;}
	.st16{display:inline;fill:#01007F;stroke:#FFFFFF;stroke-width:1.7961;stroke-miterlimit:10;}
	.st17{display:inline;fill:#01007F;stroke:#FCFCFC;stroke-width:1.2663;stroke-miterlimit:10;}
	.st18{display:inline;fill:#01007F;stroke:#FFFFFF;stroke-width:1.2663;stroke-miterlimit:10;}
	.st19{display:inline;fill:#01007F;stroke:#FFFFFF;stroke-width:1.1503;stroke-miterlimit:10;}
	.st20{fill:#0E169E;stroke:#FDFDFF;stroke-miterlimit:10;}
	.st21{fill:#000F8E;stroke:#FDFDFF;stroke-miterlimit:10;}
	.st22{fill:#05057A;}
</style>
<radialGradient id="SVGID_1_" cx="592.3284" cy="470.3149" r="157.2785" gradientTransform="matrix(1.2967 0 0 1.2967 -212.1463 -106.0569)" gradientUnits="userSpaceOnUse">
	<stop  offset="0" style="stop-color:#FFE05C"/>
	<stop  offset="0.1976" style="stop-color:#FFD956"/>
	<stop  offset="0.4848" style="stop-color:#FFC647"/>
	<stop  offset="0.8251" style="stop-color:#FFA62D"/>
	<stop  offset="1" style="stop-color:#FF931E"/>
</radialGradient>
<circle class="st4" cx="555.9" cy="503.8" r="203.9"/>
<path class="st0" d="M607,557.7c0.2-0.6,0.4-1.2,0.6-1.8c0.3-0.9,0.9-1.7,1.6-2.3c-6.2-28.5-33.4-47.8-62.7-43.6
	c-23,3.3-40.6,20.3-46,41.5c0.5,0.5,0.8,1.2,1,2c0.2,0.8,0.5,1.6,0.8,2.4c1.4-8,4.7-15.6,9.7-22.3c0.2-0.3,0.4-0.5,0.6-0.8
	c-0.1,0.6-0.2,1.2-0.5,1.7c-0.6,1.3-1.8,1.9-2.5,3.2c-0.6,1.1-1,2.7-1.1,3.9c-0.1,1.3,0.3,2.7,0,4c-0.3,1.6-1.2,2.7-0.7,4.4
	c2.2,0.3,0.7-3.4,2.5-3.8c0.8,1.3,0.8,4,0.9,5.6c0.1,2.2-0.2,2.8,1.3,4.4c1.2,1.3,1.7,2.2,3.7,2.2c0.3,0,0.6,0,0.9,0.1
	c-0.7-0.3-1.3-0.8-1.6-1.6c0,0,0,0,0-0.1c-0.3-0.2-0.6-0.5-0.7-0.9c-0.1-0.5-0.1-1-0.1-1.5c0.1-0.9,0.4-1.7,0.7-2.6
	c0.1-1.5,0.6-3.2,1-4c0.7-1.3,3.5-4,5-4.4c1.1-0.3,2.2,0,2.8,1c0.6,1,0.2,2.2,0.5,3.4c1.4-0.6,0.8-2.4,0.6-3.4
	c-0.4-1.7,0.5-1.7,1.2-3c0.6-1.2,0.6-2.5,1.4-3.7c0.6-0.9,1.4-1.9,2.1-2.8c0.8-1,1.9-1.1,2.8-1.9c1.3-1.2-0.9-2.7,1.3-2.9
	c0.8-0.1,0.5,0.5,1.5,0.1c0.4-0.2,1.2-0.7,1.6-0.9c2-1.2,0.4-1.2-0.7-2.1c-1.4-1.2,0.3-1.2,1.6-1.6c0.9-0.3,0.7-0.6,1.5-0.1
	c0.8,0.4,0.5,1.1,1.5,0.9c2-0.4,0.3-2.1-0.2-2.7c-0.9-1-1.2-1.8-2.8-1.6c0.1-0.5,0-1.2-0.3-1.7c-1.3,0.4-1.7-0.6-2.7-0.8
	c-1.8-0.4-1.3,1-1.9,2c-0.6,1.1-2,1.1-2.3,2.4c-0.4,1.3,0.3,2.2-1.8,2.2c0.2-0.8-0.1-1.7-0.2-2.5c-0.6,0-1.1-0.1-1.7-0.2
	c-0.3-2,1.9-2.5,3.4-2.9c1.7-0.5,2-2.3,3.4-2.8c1.4-0.5,2.7,1.7,4.2,0.1c0.9-0.9,0.4-1.3-0.1-1.9c-0.1-0.2-0.7-0.5-0.8-0.7
	c0,0,0,0,0-0.1c1.3-0.5,2.6-0.9,4-1.2c0.4,0.7,1.1,1.5,1.4,2c0.3,0.3,0.7,0.5,1,0.9c0.3,0.4-0.1,1.1,0.5,1.3c1,0.4,3.2-3.3,3.8-3.9
	c0.7-0.8,1.2-1.2,0.9-1.8c4.4-0.5,8.7-0.5,12.9,0.1c0.4,0.4,0.8,0.7,1.2,1.1c0.9,0.9,1.4,1.7,2.8,2c0.8,0.1,3.2-0.2,2.4,1.6
	c-0.7,1.7-2-0.2-2.5-0.6c-0.7-0.6-2.8-1.1-2.5,0.5c0.4,2.3,5.7,1.2,4.9,4c0.7,0.3,2,0.7,2,1.7c-0.1,1.2-1.7,0.7-1.4,2.1
	c0.3,2.1,2.9,3.5,4.8,2.4c2.1-1.1,0-4,2.5-4.7c1-0.3,1.6-0.1,2.6,0.5c0.8,0.5,1.5,1.7,2.5,1.5c0-0.6-0.5-1-0.7-1.6
	c0.8,0.1,2.5,0.8,3.1,1.5c0.8,0.9,1,2.4,2.5,0.9c-0.3-0.2-0.5-0.6-0.6-0.8c2.1-0.3,3.8,0.4,4.9,2.1c2.7,3.9-2.9,1.3-2.8,3.5
	c-1.3-0.2-2-1.1-3.2-1.6c-0.6-0.2-1.5,0.1-1.9-0.2c-0.6-0.3-0.6-1.1-1.1-1.4c-2.1-1.3-6,1.8-7.5,3.1c-0.4,0.3-0.9,0.4-1.2,1
	c-0.4,0.9,0.4,1.1,0.3,1.9c-0.1,1.2-1.5,1.9-1.8,2.9c-0.8,2.4,1.9,5.2,2,7.7c0,1.4-1.2,3.1-0.5,4.1c0.3,0.5,1.2,0.8,1.6,1.3
	c0.4,0.5,0.6,1.2,1.1,1.6c1.5,1.6,3.6,3.3,5.3,4.7c1,0.8,2.1,0.9,3.4,0.5c1-0.4,2.5-0.9,3.4-1.5c1.2-0.8,1.2-1.7,2.7-1.3
	c1.1,0.3,2.3,1.5,3.4,0.2c1.2,0.9,0.3,2.8,0.2,4c-0.1,1.5,0.7,2.7,1.7,3.8c1.3,1.3,1.6,1.5,1.6,3.6c0.1,1.6-0.1,3-0.2,4.6
	c-0.1,1.2-0.6,2.3-0.6,3.5c0.9-1.5,2-2.9,3-4.6C601.3,564.2,603.5,560.7,607,557.7z"/>
<circle class="st12" cx="451.4" cy="423.7" r="22.4"/>
<circle class="st1" cx="667.2" cy="423.6" r="22.4"/>
<path class="st12" d="M501.2,535.9c-25-34.9,4.2-46.4,4.2-46.4c24.8-5.8,47.3,8.9,47.3,8.9c-14.6-50-63.3-52.3-63.3-52.3
	c-42.8-3.8-41,33.2-41,33.2c12.4,71.7,108.5,121.9,108.5,121.9C532.7,588.4,501.2,535.9,501.2,535.9z"/>
<path class="st1" d="M624.6,446.2c0,0-48.7,2-63.6,51.9c0,0,22.6-14.6,47.4-8.7c0,0,29.2,11.6,4,46.4c0,0-31.8,52.3-56.1,65
	c0,0,96.4-49.6,109.2-121.3C665.4,479.7,667.4,442.6,624.6,446.2z"/>
<g>
	<g>
		<path class="st20" d="M471.3,638.7c0,0-7.8-9.3-15.2-16.6c-8.6-8.5-9.8-12-13.9-18c-4.1-6-18.2-23.7-25.6-18.8
			c-7,4.6,34,50.8,34,50.8L471.3,638.7z"/>
		<g>
			<path class="st21" d="M460.3,634.3c0,0-8.5-8.6-16.5-15.3c-9.2-7.8-10.7-11.2-15.3-16.9c-4.6-5.6-20-22.2-27-16.7
				c-6.6,5.1,37.9,47.9,37.9,47.9L460.3,634.3z"/>
			<path class="st21" d="M508.4,669.9c0,0-34.8-6.3-46.1-9.5c-8.9-2.5-18.6-16.8-30.7-26.2c-12.1-9.5-28.6-23.6-36.1-27
				c-7.5-3.4-14.9-9.5-14.9-9.5s4-6.5,14.4-3.8c10.4,2.6,25,10.8,30.7,15.8c1.7,1.5,44.4,23.3,44.4,23.3L508.4,669.9z"/>
			<path class="st21" d="M495.7,657.6c0,0-7.7,0.6-13.2-3.8c-5.2-4.2-11.9-6.4-18.1-8.6c-6.5-2.2-18.3-4.7-19.2-13.4
				c-0.4-4,3.5-7,6.9-8.2c0,0,16.8,8.3,27.4,11.7C490.1,638.9,495.7,657.6,495.7,657.6z"/>
			<path class="st21" d="M447.1,628.3c1.3-4.9,7.7-5.4,11.8-5.1c10.9,0.8,18.3,5.2,32.5,8.8c11.6,2.9,23.1-0.2,36.7,4.8
				c15.7,5.7,18.1,18.5,21,35.2c1.3,7.6,4,23.6,6.1,36l-34.4-1.3c-0.2-9.9-0.9-25.6-3.1-29.4c-3.3-5.8-18.9-9.1-18.9-9.1l-9.6-12.4
				c0,0-12-11.9-30.8-16.5c-0.3-0.1-0.6-0.2-0.9-0.2c-0.3-0.1-0.6-0.2-0.9-0.3C451.9,637.4,445.6,634.4,447.1,628.3z"/>
			<path class="st21" d="M520.9,706.7c-1-9.6-2.8-24.2-5.4-27.6c-3.8-5.2-28.9-9.2-35.3-10.9c-6.3-1.7-18-7.7-18-7.7
				s39.3,6.3,50.6,8.9c11.3,2.6,12.7,9.2,13.6,21.5c0.4,5.6,0.6,11.4,0.6,16.1L520.9,706.7z"/>
			<path class="st21" d="M462.3,627.7l-2.6,9.8c0,0-11.9-1.6-10.7-8.1C450.1,622.9,462.3,627.7,462.3,627.7z"/>
			<path class="st21" d="M380.7,597.7c0,0,2.8-2,7.7,1.1c4.9,3.1,4.9,3.1,4.9,3.1l-1.7,3.3c0,0-3.9-2-6.3-3.6
				C384,600.6,380.7,597.7,380.7,597.7z"/>
		</g>
	</g>
</g>
<g>
	<g>
		<path class="st20" d="M637.1,639c0,0,7.7-9.3,15.1-16.7c8.5-8.6,9.7-12.1,13.8-18.1c4.1-6,18-23.8,25.5-19c7,4.5-33.7,51-33.7,51
			L637.1,639z"/>
		<path class="st21" d="M649,633.5c0,0,8.5-8.7,16.3-15.5c9.2-7.9,10.7-11.3,15.2-17c4.5-5.7,19.8-22.3,26.9-16.9
			c6.6,5.1-37.6,48.2-37.6,48.2L649,633.5z"/>
		<path class="st21" d="M601.2,669.4c0,0,34.8-6.5,46.1-9.8c8.9-2.6,18.4-16.9,30.5-26.5c12.1-9.6,28.4-23.8,35.9-27.2
			c7.4-3.4,14.8-9.6,14.8-9.6s-4-6.5-14.5-3.7c-10.4,2.7-24.9,11-30.6,16c-1.7,1.5-44.3,23.6-44.3,23.6L601.2,669.4z"/>
		<path class="st21" d="M613.8,657c0,0,7.7,0.6,13.2-3.9c5.2-4.2,11.8-6.5,18-8.7c6.5-2.3,18.3-4.9,19.1-13.5c0.4-4-3.5-7-7-8.2
			c0,0-16.7,8.4-27.3,11.9C619.3,638.3,613.8,657,613.8,657z"/>
		<path class="st21" d="M662.2,627.4c-1.3-4.9-7.7-5.3-11.9-5c-10.9,0.9-18.3,5.3-32.4,9c-11.6,3-23.1,0-36.7,5.1
			c-15.7,5.8-18,18.6-20.7,35.3c-1.3,7.6-3.9,23.6-5.9,36.1l34.3-1.5c0.1-9.9,0.7-25.6,2.9-29.5c3.3-5.8,18.8-9.2,18.8-9.2l9.5-12.4
			c0,0,12-12,30.7-16.7c0.3-0.1,0.6-0.2,0.9-0.2c0.3-0.1,0.6-0.2,0.9-0.3C657.5,636.6,663.8,633.4,662.2,627.4z"/>
		<path class="st21" d="M589,706.3c0.9-9.6,2.6-24.2,5.2-27.7c3.8-5.2,28.8-9.4,35.2-11.2c6.3-1.7,17.9-7.8,17.9-7.8
			s-39.2,6.6-50.5,9.3c-11.3,2.7-12.6,9.3-13.5,21.6c-0.4,5.6-0.5,11.4-0.5,16.1L589,706.3z"/>
		<path class="st21" d="M647.1,626.9l2.7,9.8c0,0,11.9-1.6,10.7-8.2C659.2,622,647.1,626.9,647.1,626.9z"/>
		<path class="st21" d="M728.5,596.3c0,0-2.8-1.9-7.7,1.2c-4.9,3.1-4.9,3.1-4.9,3.1l1.8,3.2c0,0,3.9-2.1,6.3-3.7
			C725.2,599.3,728.5,596.3,728.5,596.3z"/>
	</g>
</g>
<image style="overflow:visible;" width="1080" height="1080" xlink:href="../../../Downloads/Untitled-4.png"  transform="matrix(0.8414 0 0 0.8414 118.348 79.9017)">
</image>
</svg>
